# AST/ASF file generated using VICON BodyLanguage
# -----------------------------------------------
:version 1.10
:name VICON
:units
  mass 1.0
  length 0.45
  angle deg
:documentation
   .ast/.asf automatically generated from VICON data using
   VICON BodyBuilder and BodyLanguage model FoxedUp or BRILLIANT.MOD
:root
   order TX TY TZ RX RY RZ
   axis XYZ
   position 0 0 0  
   orientation 0 0 0 
:bonedata
  begin
     id 1 
     name lhipjoint
     direction 0.521452 -0.77106 0.36545 
     length 2.0933 
     axis 0 0 0  XYZ
  end
  begin
     id 2 
     name lfemur
     direction 0.34202 -0.939693 0  
     length 6.83441  
     axis 0 0 20  XYZ
    dof rx ry rz
    limits (-160.0 20.0)
           (-70.0 70.0)
           (-60.0 70.0)
  end
  begin
     id 3 
     name ltibia
     direction 0.34202 -0.939693 0   
     length 7.28749   
     axis 0 0 20   XYZ
    dof rx
    limits (-10.0 170.0)
  end
  begin
     id 4 
     name lfoot
     direction 0.100608 -0.276418 0.955757   
     length 1.52195   
     axis -90 7.62852e-016 20   XYZ
    dof rx rz
    limits (-45.0 90.0)
           (-70.0 20.0)
  end
  begin
     id 5 
     name ltoes
     direction 1.53558e-011 -4.21907e-011 1   
     length 0.770459   
     axis -90 7.62852e-016 20   XYZ
    dof rx
    limits (-90.0 20.0)
  end
  begin
     id 6 
     name rhipjoint
     direction -0.488071 -0.788702 0.373812   
     length 2.04648  
     axis 0 0 0  XYZ 
  end
  begin
     id 7 
     name rfemur
     direction -0.34202 -0.939693 0   
     length 6.92583   
     axis 0 0 -20   XYZ
    dof rx ry rz
    limits (-160.0 20.0)
           (-70.0 70.0)
           (-70.0 60.0)
  end
  begin
     id 8 
     name rtibia
     direction -0.34202 -0.939693 0   
     length 7.41043   
     axis 0 0 -20   XYZ
    dof rx
    limits (-10.0 170.0)
 end
 begin
     id 9 
     name rfoot
     direction -0.0784433 -0.215521 0.973343   
     length 1.67708  
     axis -90 -7.62852e-016 -20   XYZ
    dof rx rz
    limits (-45.0 90.0)
           (-20.0 70.0)
  end
  begin
     id 10 
     name rtoes
     direction -1.53551e-011 -4.21842e-011 1   
     length 0.849787   
     axis -90 -7.62852e-016 -20   XYZ
    dof rx
    limits (-90.0 20.0)
  end
  begin
     id 11 
     name lowerback
     direction -0.0122332 0.997575 -0.0685192   
     length 1.98724   
     axis 0 0 0   XYZ
    dof rx ry rz
    limits (-20.0 45.0)
           (-30.0 30.0)
           (-30.0 30.0)
  end
  begin
     id 12 
     name upperback
     direction 0.0182347 0.999724 -0.0148421   
     length 1.99029   
     axis 0 0 0   XYZ
    dof rx ry rz
    limits (-20.0 45.0)
           (-30.0 30.0)
           (-30.0 30.0)
  end
  begin
     id 13 
     name thorax
     direction 0.0242908 0.99956 0.0170184   
     length 1.99573   
     axis 0 0 0   XYZ
    dof rx ry rz
    limits (-20.0 45.0)
           (-30.0 30.0)
           (-30.0 30.0)
  end
  begin
     id 14 
     name lowerneck
     direction 0.0654488 0.985533 0.156338   
     length 1.4285   
     axis 0 0 0   XYZ
    dof rx ry rz
    limits (-20.0 45.0)
           (-30.0 30.0)
           (-30.0 30.0)
  end
  begin
     id 15 
     name upperneck
     direction -0.02953 0.998556 -0.0448842   
     length 1.44709   
     axis 0 0 0   XYZ
    dof rx ry rz
    limits (-20.0 45.0)
           (-30.0 30.0)
           (-30.0 30.0)
  end
  begin
     id 16
     name head
     direction -0.0155588 0.999386 -0.0314063  
     length 1.44689  
     axis 0 0 0   XYZ
    dof rx ry rz
    limits (-20.0 45.0)
           (-30.0 30.0)
           (-30.0 30.0)
  end
  begin
     id 17 
     name lclavicle
     direction 0.968229 0.236071 -0.0824755  
     length 3.60593  
     axis 0 0 0   XYZ
    dof ry rz
    limits (-20.0 10.0)
           (0.0 20.0)
  end
  begin
     id 18 
     name lhumerus
     direction 1 -4.48968e-011 7.8138e-029   
     length 5.06035   
     axis 180 -30 -90   XYZ
    dof rx ry rz
    limits (-60.0 90.0)
           (-90.0 90.0)
           (-90.0 90.0)
  end
  begin
     id 19
     name lradius
     direction 1 -4.48967e-011 9.02887e-028   
     length 3.1478   
     axis 180 -30 -90   XYZ
    dof rx
    limits (-10.0 170.0)
  end
  begin
     id 20
     name lwrist
     direction 1 -4.48961e-011 7.20928e-028   
     length 1.5739   
     axis -5.52449e-016 90 90   XYZ
    dof ry
    limits (-180.0 0.0)
 end
  begin
     id 21 
     name lhand
     direction 1 -4.48972e-011 1.44186e-027   
     length 0.606747   
     axis -9.20027e-016 90 90   XYZ
    dof rx rz
    limits (-90.0 90.0)
           (-45.0 45.0)
  end
  begin
     id 22 
     name lfingers
     direction 1 -4.48943e-011 2.88371e-027   
     length 0.489175   
     axis -1.84005e-015 90 90   XYZ
    dof rx
    limits (0.0 90.0)
  end
  begin
     id 23
     name lthumb
     direction 0.707107 -6.34917e-011 0.707107   
     length 0.70236   
     axis -90 45 2.85299e-015   XYZ
    dof rx rz
    limits (-45.0 45.0)
           (-45.0 45.0)
  end
  begin
     id 24 
     name rclavicle
     direction -0.978165 0.207816 0.0022268   
     length 3.35425  
     axis 0 0 0   XYZ 
    dof ry rz
    limits (-10.0 20.0)
           (-20.0 0.0)
  end
  begin
     id 25 
     name rhumerus
     direction -1 -4.48964e-011 -4.02159e-027  
     length 5.12273   
     axis 180 30 90   XYZ
    dof rx ry rz
    limits (-90.0 60.0)
           (-90.0 90.0)
           (-90.0 90.0)
  end
  begin
     id 26 
     name rradius
     direction -1 -4.48966e-011 1.62746e-027   
     length 3.422   
     axis 180 30 90   XYZ
    dof rx
    limits (-10.0 170.0)
  end
  begin
     id 27 
     name rwrist
     direction -1 -4.4896e-011 7.20928e-028   
     length 1.711   
     axis -5.52449e-016 -90 -90   XYZ
    dof ry
    limits (-180.0 0.0)
  end
  begin
     id 28
     name rhand
     direction -1 -4.48979e-011 1.44186e-027   
     length 0.704599   
     axis -9.20027e-016 -90 -90   XYZ
    dof rx rz
    limits (-90.0 90.0)
           (-45.0 45.0)
  end
  begin
     id 29
     name rfingers
     direction -1 -4.48962e-011 2.88371e-027   
     length 0.568066   
     axis -1.84005e-015 -90 -90   XYZ
    dof rx
    limits (0.0 90.0)
  end
  begin
     id 30
     name rthumb
     direction -0.707107 -6.34949e-011 0.707107   
     length 0.815633   
     axis -90 -45 -2.85299e-015   XYZ
    dof rx rz
    limits (-45.0 45.0)
           (-45.0 45.0)
  end
:hierarchy
  begin
    root lhipjoint rhipjoint lowerback
    lhipjoint lfemur
    lfemur ltibia
    ltibia lfoot
    lfoot ltoes
    rhipjoint rfemur
    rfemur rtibia
    rtibia rfoot
    rfoot rtoes
    lowerback upperback
    upperback thorax
    thorax lowerneck lclavicle rclavicle
    lowerneck upperneck
    upperneck head
    lclavicle lhumerus
    lhumerus lradius
    lradius lwrist
    lwrist lhand lthumb
    lhand lfingers
    rclavicle rhumerus
    rhumerus rradius
    rradius rwrist
    rwrist rhand rthumb
    rhand rfingers
  end

#!OML:ASF E:\id_vita\Project 1\Capture day 1\Session 1\Male1.ASF
:FULLY-SPECIFIED
:DEGREES
1
root -29.0919 15.7447 -1.96519 46.554 84.6159 38.538
lowerback -5.63735 -0.360211 -7.18963
upperback -1.86763 0.00357704 -1.50372
thorax 1.23129 0.0333529 2.47877
lowerneck -9.10589 0.183169 3.95589
upperneck 4.52394 -0.216688 -0.0837519
head 3.05709 -0.0310963 -0.734227
rclavicle 1.42007e-014 2.78299e-015
rhumerus -157.438 -20.54 77.4078
rradius -3.15029
rwrist 153.631
rhand -25.259 41.409
rfingers 7.12502
rthumb 1.26146 11.4329
lclavicle 1.42007e-014 2.78299e-015
lhumerus -36.229 39.3973 63.6284
lradius 6.93073
lwrist -23.706
lhand -13.9673 42.2272
lfingers 7.12502
lthumb 12.1607 71.8537
rfemur -11.3651 1.82969 15.9937
rtibia 66.5874
rfoot 3.13031 9.24564
rtoes 9.36974
lfemur -27.5806 -1.41892 -24.1451
ltibia 37.6498
lfoot -20.4186 -6.40824
ltoes 39.6186
2
root -28.8879 15.7628 -1.97691 46.1645 84.5286 38.6456
lowerback -5.15585 -0.358579 -7.66622
upperback -1.77648 -0.0243376 -1.13827
thorax 1.05765 0.0202742 3.12115
lowerneck -8.9743 0.205841 3.9345
upperneck 4.31529 -0.150933 -0.48696
head 2.96317 -0.0185903 -0.857217
rclavicle 7.61594e-015 -1.23246e-014
rhumerus -156.445 -20.8382 77.6371
rradius -2.56041
rwrist 152.874
rhand -24.9526 41.4068
rfingers 7.12502
rthumb 1.55738 11.4328
lclavicle 7.61594e-015 -1.23246e-014
lhumerus -35.5051 40.2111 64.7869
lradius 8.03172
lwrist -24.6113
lhand -15.2634 40.4936
lfingers 7.12502
lthumb 10.9107 70.1901
rfemur -12.5273 1.87911 15.971
rtibia 67.3363
rfoot 1.34565 8.31983
rtoes 11.7858
lfemur -25.9603 -1.58809 -24.343
ltibia 37.2552
lfoot -20.9978 -5.69611
ltoes 34.5405
3
root -28.6891 15.7729 -1.98937 45.598 84.604 38.6038
lowerback -4.71592 -0.328792 -7.04773
upperback -1.5985 -0.0416643 -1.49513
thorax 0.999475 0.00751598 2.40592
lowerneck -8.94268 0.287864 4.22167
upperneck 4.13149 -0.084929 -0.236915
head 2.89619 0.0277484 -0.821335
rclavicle 1.42876e-015 1.59028e-015
rhumerus -155.965 -20.5708 76.9768
rradius -1.46475
rwrist 152.414
rhand -24.9755 41.2685
rfingers 7.12502
rthumb 1.5352 11.2943
lclavicle 1.42876e-015 1.59028e-015
lhumerus -34.3933 40.4368 65.0808
lradius 9.19956
lwrist -25.4311
lhand -15.5645 38.7734
lfingers 7.12502
lthumb 10.6202 68.485
rfemur -13.6804 1.77598 16.0802
rtibia 67.9468
rfoot -0.201291 7.8204
rtoes 10.6538
lfemur -24.4157 -1.67714 -24.4296
ltibia 37.0371
lfoot -21.7859 -5.05052
ltoes 28.4159
4
root -28.4948 15.7792 -2.00583 45.8588 84.8523 39.3639
lowerback -4.25884 -0.43487 -6.51517
upperback -1.43471 -0.239707 -1.62972
thorax 0.930092 -0.0950324 1.96049
lowerneck -8.88509 0.427313 4.39788
upperneck 4.13235 0.083828 -0.235225
head 2.89087 0.114939 -0.842825
rclavicle 5.00689e-015 3.22031e-014
rhumerus -155.331 -20.6896 76.557
rradius -0.523233
rwrist 152.057
rhand -24.8512 41.3043
rfingers 7.12502
rthumb 1.65529 11.331
lclavicle 5.00689e-015 3.22031e-014
lhumerus -33.303 41.034 65.6127
lradius 10.4447
lwrist -26.3367
lhand -14.1941 37.8164
lfingers 7.12502
lthumb 11.9419 67.4558
rfemur -14.8565 1.32814 16.229
rtibia 68.4999
rfoot -2.39319 7.35322
rtoes 8.97814
lfemur -22.9096 -2.21572 -24.4302
ltibia 36.7522
lfoot -22.4535 -4.02799
ltoes 20.6629
5
root -28.299 15.7845 -2.01601 46.2402 85.0563 40.1496
lowerback -3.98597 -0.580789 -6.2452
upperback -1.23771 -0.462461 -1.62918
thorax 0.997294 -0.214003 1.80025
lowerneck -9.00987 0.482577 4.58158
upperneck 4.28452 0.134309 -0.342651
head 2.96996 0.141535 -0.909228
rclavicle 1.29831e-014 7.95139e-015
rhumerus -154.705 -20.9799 76.2778
rradius 0.283036
rwrist 151.739
rhand -24.6821 41.321
rfingers 7.12502
rthumb 1.81863 11.349
lclavicle 1.29831e-014 7.95139e-015
lhumerus -29.5706 36.6763 70.3649
lradius 11.7093
lwrist -21.3461
lhand -13.2618 38.0384
lfingers 7.12502
lthumb 12.8408 67.6234
rfemur -16.1815 0.916268 16.4229
rtibia 68.9113
rfoot -4.88401 6.84998
rtoes 6.86921
lfemur -21.491 -2.54225 -24.4545
ltibia 36.4093
lfoot -23.1215 -3.27502
ltoes 14.2015
6
root -28.1011 15.7864 -2.02267 49.3568 84.9421 43.5196
lowerback -3.61504 -0.732058 -6.98641
upperback -1.23316 -0.67587 -1.28816
thorax 0.821787 -0.317007 2.55797
lowerneck -9.22307 0.519197 4.4726
upperneck 4.5107 0.204633 -0.712767
head 3.09224 0.161894 -1.01023
rclavicle -1.54058e-014 -1.39149e-014
rhumerus -153.988 -21.5885 76.6381
rradius 1.30919
rwrist 151.511
rhand -24.2751 41.0217
rfingers 7.12502
rthumb 2.21165 11.0534
lclavicle -1.54058e-014 -1.39149e-014
lhumerus -26.9954 32.5876 74.5972
lradius 13.0894
lwrist -16.5288
lhand -13.2101 38.3916
lfingers 7.12502
lthumb 12.8907 67.9735
rfemur -17.7334 0.613452 16.194
rtibia 69.1337
rfoot -7.00422 6.60171
rtoes 7.47696
lfemur -20.2303 -2.69667 -24.8979
ltibia 36.095
lfoot -23.808 -2.28157
ltoes 6.5891
7
root -27.9116 15.7806 -2.03736 57.1038 84.5476 51.8221
lowerback -2.85578 -0.935797 -8.01306
upperback -1.17158 -0.985243 -1.16175
thorax 0.506743 -0.461089 3.25673
lowerneck -9.20146 0.578957 4.15223
upperneck 4.50663 0.331079 -0.835088
head 3.08876 0.212807 -0.98651
rclavicle 1.57102e-014 -2.5842e-015
rhumerus -153.83 -22.3478 77.2076
rradius 3.19438
rwrist 151.231
rhand -23.3373 41.1722
rfingers 7.12502
rthumb 3.11732 11.2153
lclavicle 1.57102e-014 -2.5842e-015
lhumerus -24.8664 28.0605 78.2905
lradius 14.6355
lwrist -11.4196
lhand -13.5905 39.3973
lfingers 7.12502
lthumb 12.5239 69.0019
rfemur -18.9155 0.0443548 15.3335
rtibia 69.1436
rfoot -8.89907 6.45255
rtoes 9.14073
lfemur -18.6548 -3.35082 -25.9398
ltibia 35.7648
lfoot -24.6676 -0.0604346
ltoes -6.6406
8
root -27.7137 15.7778 -2.04293 58.1529 85.0951 53.3771
lowerback -2.50036 -1.16239 -7.27166
upperback -0.925563 -1.33152 -1.21833
thorax 0.585245 -0.646197 2.77596
lowerneck -9.01988 0.703333 4.0283
upperneck 4.28129 0.499318 -0.468906
head 2.97719 0.306375 -0.833287
rclavicle -4.70871e-015 8.74653e-015
rhumerus -152.764 -22.509 76.5353
rradius 3.11201
rwrist 150.976
rhand -22.9246 41.1126
rfingers 7.12502
rthumb 3.51588 11.1619
lclavicle -4.70871e-015 8.74653e-015
lhumerus -22.9102 23.5987 80.6351
lradius 16.268
lwrist -6.84699
lhand -13.8626 39.8006
lfingers 7.12502
lthumb 12.2616 69.4211
rfemur -19.9018 -0.277829 15.9635
rtibia 68.8075
rfoot -10.6719 5.48352
rtoes 8.95105
lfemur -17.1417 -4.10733 -25.6633
ltibia 35.5244
lfoot -24.9483 0.702559
ltoes -7.31434
9
root -27.5118 15.7782 -2.06035 63.8591 85.6786 59.1426
lowerback -2.48519 -1.45492 -6.57829
upperback -0.860324 -1.73674 -1.30282
thorax 0.663158 -0.853252 2.28761
lowerneck -8.87743 0.762763 4.17552
upperneck 4.12031 0.564639 -0.374257
head 2.89706 0.343463 -0.823855
rclavicle -1.41386e-014 -8.34896e-015
rhumerus -151.611 -22.5159 75.9967
rradius 2.98233
rwrist 150.696
rhand -22.8172 40.8441
rfingers 7.12502
rthumb 3.61962 10.8951
lclavicle -1.41386e-014 -8.34896e-015
lhumerus -21.4453 19.7727 82.3628
lradius 17.9915
lwrist -3.27273
lhand -13.6728 39.7675
lfingers 7.12502
lthumb 12.4446 69.377
rfemur -21.3255 -0.934857 16.3508
rtibia 68.2903
rfoot -12.2253 4.69747
rtoes 8.74676
lfemur -16.1816 -5.08326 -25.5513
ltibia 35.3741
lfoot -25.1589 1.24585
ltoes -7.18682
